<svg xmlns="http://www.w3.org/2000/svg" viewBox="0 0 80 80" fill="none">
  <defs>
    <linearGradient id="idea-body" x1="17" y1="8" x2="61" y2="61" gradientUnits="userSpaceOnUse"><stop stop-color="#12b5ad"/><stop offset=".55" stop-color="#278bd9"/><stop offset="1" stop-color="#4f6bea"/></linearGradient>
    <linearGradient id="idea-gold" x1="29" y1="28" x2="50" y2="51" gradientUnits="userSpaceOnUse"><stop stop-color="#ffe49a"/><stop offset="1" stop-color="#f2ad35"/></linearGradient>
  </defs>
  <path d="M16 31a24 24 0 1 1 48 0c0 12-9 15-11 24l-1 6H28l-1-6c-2-9-11-12-11-24Z" fill="url(#idea-body)"/>
  <path d="M16 31A24 24 0 0 1 54 11L36 41 19 43a27 27 0 0 1-3-12Z" fill="#fff" opacity=".16"/>
  <path d="m42 21-15 20h12l-2 14 16-22H41Z" fill="url(#idea-gold)"/>
  <path d="M28 61h24v4a5 5 0 0 1-5 5H33a5 5 0 0 1-5-5Z" fill="#10233f"/>
  <path d="M33 73h14" stroke="#10233f" stroke-width="5" stroke-linecap="round"/>
  <path d="m8 18 5 3m54 0 5-3M6 38h5m58 0h5" stroke="#12b5ad" stroke-width="4" stroke-linecap="round"/>
</svg>
