<svg xmlns="http://www.w3.org/2000/svg" viewBox="0 0 80 80" fill="none">
  <defs>
    <linearGradient id="location-body" x1="16" y1="5" x2="64" y2="72" gradientUnits="userSpaceOnUse"><stop stop-color="#12b5ad"/><stop offset=".55" stop-color="#278bd9"/><stop offset="1" stop-color="#4f6bea"/></linearGradient>
    <linearGradient id="location-gold" x1="31" y1="21" x2="49" y2="39" gradientUnits="userSpaceOnUse"><stop stop-color="#ffe49a"/><stop offset="1" stop-color="#f2ad35"/></linearGradient>
  </defs>
  <ellipse cx="40" cy="74" rx="19" ry="4" fill="#10233f" opacity=".16"/>
  <path d="M12 31a28 28 0 1 1 56 0c0 18-21 36-25 40a4 4 0 0 1-6 0c-4-4-25-22-25-40Z" fill="url(#location-body)"/>
  <path d="M12 31A28 28 0 0 1 57 9L38 44 15 43a33 33 0 0 1-3-12Z" fill="#fff" opacity=".15"/>
  <path d="m38 44 27-1c-6 13-19 25-22 28a4 4 0 0 1-6 0Z" fill="#10233f" opacity=".12"/>
  <circle cx="40" cy="30" r="13" fill="#f5fffc"/>
  <circle cx="40" cy="30" r="7" fill="url(#location-gold)"/>
</svg>
