<svg xmlns="http://www.w3.org/2000/svg" viewBox="0 0 80 80" fill="none">
  <defs>
    <linearGradient id="music-body" x1="14" y1="17" x2="63" y2="68" gradientUnits="userSpaceOnUse">
      <stop stop-color="#12b5ad"/>
      <stop offset=".55" stop-color="#278bd9"/>
      <stop offset="1" stop-color="#4f6bea"/>
    </linearGradient>
    <linearGradient id="music-gold" x1="33" y1="30" x2="56" y2="60" gradientUnits="userSpaceOnUse">
      <stop stop-color="#ffe49a"/>
      <stop offset="1" stop-color="#f2ad35"/>
    </linearGradient>
  </defs>
  <path d="M8 36C8 20 18 10 33 7" stroke="#12b5ad" stroke-width="2" stroke-linecap="round" opacity=".35"/>
  <path d="M16 47V36a24 24 0 0 1 48 0v11" stroke="#10233f" stroke-width="9" stroke-linecap="round"/>
  <path d="M16 43v-7a24 24 0 0 1 48 0v7" stroke="url(#music-body)" stroke-width="6" stroke-linecap="round"/>
  <rect x="9" y="39" width="19" height="30" rx="8" fill="url(#music-body)"/>
  <rect x="52" y="39" width="19" height="30" rx="8" fill="url(#music-body)"/>
  <path d="M16 40v21c0 4 3 6 7 7H17a8 8 0 0 1-8-8V47a8 8 0 0 1 7-7Z" fill="#fff" opacity=".18"/>
  <path d="M59 40v21c0 4 3 6 7 7h-6a8 8 0 0 1-8-8V47a8 8 0 0 1 7-7Z" fill="#fff" opacity=".18"/>
  <rect x="23" y="43" width="5" height="22" rx="2.5" fill="#10233f"/>
  <rect x="52" y="43" width="5" height="22" rx="2.5" fill="#10233f"/>
  <path d="M41 31v22" stroke="url(#music-gold)" stroke-width="5" stroke-linecap="round"/>
  <path d="m41 31 10-3v8l-10 3Z" fill="url(#music-gold)"/>
  <ellipse cx="36" cy="55" rx="7" ry="5" transform="rotate(-20 36 55)" fill="url(#music-gold)"/>
  <path d="m67 5 2.2 5.8L75 13l-5.8 2.2L67 21l-2.2-5.8L59 13l5.8-2.2Z" fill="url(#music-gold)" stroke="#fff" stroke-width="1" stroke-linejoin="round"/>
  <circle cx="8" cy="73" r="2.5" fill="#4f7cff" opacity=".65"/>
</svg>
